<?xml version="1.0" encoding="utf-8"?>
<!-- Generator: Adobe Illustrator 22.0.1, SVG Export Plug-In . SVG Version: 6.00 Build 0)  -->
<svg version="1.1" id="Layer_2_1_" xmlns="http://www.w3.org/2000/svg" xmlns:xlink="http://www.w3.org/1999/xlink" x="0px" y="0px"
	 viewBox="0 0 64 64" style="enable-background:new 0 0 64 64;" xml:space="preserve">
<g>
	<path d="M29.3,42.6c1.6,0,2.7-1.1,2.7-2.7V23.7c0-5.6,4.5-10.4,10.4-10.4h12l-4.3,3.2c-1.1,0.8-1.3,2.7-0.5,3.7
		c0.5,0.8,1.3,1.1,2.1,1.1c0.5,0,1.1-0.3,1.6-0.5l8.8-6.4c1.1-1.1,1.9-2.4,1.9-3.7S63.2,8,62.1,6.9l-8.8-6.4C52.3-0.3,50.4,0,49.6,1
		S49.1,4,50.1,4.8L54.4,8H42.1c-8.5,0-15.5,6.9-15.5,15.7V40C26.7,41.6,27.7,42.6,29.3,42.6z"/>
	<path d="M61.3,37.3c-1.6,0-2.7,1.1-2.7,2.7v18.1c0,0.3-0.3,0.5-0.5,0.5H5.9c-0.3,0-0.5-0.3-0.5-0.5V40c0-1.6-1.1-2.7-2.7-2.7
		S0,38.4,0,40v18.1C0,61.3,2.7,64,5.9,64h52.3c3.2,0,5.9-2.7,5.9-5.9V40C64,38.4,62.9,37.3,61.3,37.3z"/>
</g>
</svg>
